<?xml version="1.0" encoding="utf-8"?>
<!-- Generator: Adobe Illustrator 19.2.1, SVG Export Plug-In . SVG Version: 6.00 Build 0)  -->
<svg version="1.1" id="Layer_1" xmlns="http://www.w3.org/2000/svg" xmlns:xlink="http://www.w3.org/1999/xlink" x="0px" y="0px"
	 viewBox="0 0 436.5 214.5" style="enable-background:new 0 0 436.5 214.5;" xml:space="preserve">
<path style="fill:#ED1C24;" d="M80.3,65.3H68.4c-4.6,0-8.5,0.4-11.6,1.1s-5.6,2-7.5,3.8s-3.2,4.2-4,7.4c-0.8,3.1-1.2,7.1-1.2,11.8
	v73.4H10.9V89.2c0-9.1,1-16.8,3.1-23.2c2.1-6.4,5.4-11.6,9.9-15.7s10.4-7.1,17.5-9c7.1-1.9,15.8-2.9,26.1-2.9h12.8L80.3,65.3
	L80.3,65.3z"/>
<path style="fill:#ED1C24;" d="M361.8,162.8V65.3h-11h-5.9h-17.3l-38.4,85.2c-1.6,3.4-4,6.3-7,8.6c-3,2.3-6.8,3.5-11.3,3.5
	c-4.3,0-8-1.2-11-3.5s-5.4-5.2-7-8.6L218.8,76l-35.9,74.5c-1.8,3.7-4.2,6.7-7.2,8.8c-3,2.2-6.8,3.2-11.3,3.2
	c-5.1,0-8.9-1.1-11.5-3.2c-2.6-2.2-4.7-5.1-6.4-8.8l-36.7-85.2H89.2h-0.9h-6.6v-27h6.6h0.9h8.9h33.7l34.8,81.4l34.6-72.2
	c2.1-4,4.4-7.1,7-9.3c2.6-2.2,6.4-3.2,11.3-3.2c4.8,0,8.5,1,11.1,3c2.7,2,5,5.2,6.9,9.5l32.8,72.2l36.6-81.4h1.5h31.5h5.1h5.9h11
	V4.2h33.9v34.2h38.1v27h-38.1v97.5h-34V162.8z"/>
<g style="enable-background:new    ;">
	<path d="M9.2,210.4v-11.6c0-1.5,0.2-2.8,0.5-3.8s0.9-1.9,1.6-2.6s1.7-1.2,2.9-1.5c1.2-0.3,2.6-0.5,4.3-0.5H22v4.5h-3.4
		c-0.8,0-1.4,0.1-1.9,0.2c-0.5,0.1-0.9,0.3-1.2,0.6c-0.3,0.3-0.5,0.7-0.7,1.2c-0.1,0.5-0.2,1.2-0.2,2v11.6H9.2z"/>
	<path d="M29.9,210.4c-1.4,0-2.6-0.1-3.5-0.4c-0.9-0.2-1.7-0.6-2.2-1.1c-0.5-0.5-0.9-1-1.1-1.7c-0.2-0.7-0.3-1.4-0.3-2.2v-1.9
		c0-0.8,0.1-1.6,0.3-2.2c0.2-0.7,0.6-1.2,1.1-1.7c0.5-0.5,1.2-0.8,2.1-1c0.9-0.2,2-0.4,3.4-0.4h14.6v-0.4c0-1.3-0.3-2.1-0.8-2.6
		s-1.4-0.6-2.6-0.6h-5.4v-3.9h5.4c1.6,0,2.9,0.1,4,0.4s2,0.7,2.7,1.4c0.7,0.6,1.2,1.4,1.5,2.3c0.3,0.9,0.5,2,0.5,3.3v4.9
		c0,1.5-0.1,2.7-0.4,3.7c-0.3,1-0.8,1.8-1.5,2.4c-0.7,0.6-1.6,1.1-2.8,1.3c-1.2,0.3-2.6,0.4-4.4,0.4H29.9z M44.1,201.4h-14
		c-0.6,0-1.1,0.1-1.5,0.4c-0.4,0.3-0.5,0.8-0.5,1.6v1.4c0,0.7,0.2,1.2,0.6,1.5c0.4,0.3,0.9,0.4,1.6,0.4h10.2c0.6,0,1.2,0,1.6-0.1
		s0.8-0.3,1.1-0.5c0.3-0.3,0.5-0.6,0.7-1.1s0.2-1.1,0.2-1.8V201.4z"/>
	<path d="M63,210.4c-1.8,0-3.4-0.2-4.6-0.5c-1.2-0.3-2.2-0.8-2.9-1.5s-1.2-1.6-1.5-2.7c-0.3-1.1-0.5-2.4-0.5-4.1v-2.7
		c0-1.6,0.2-3,0.5-4.1c0.3-1.1,0.8-2,1.5-2.7s1.7-1.2,2.9-1.5c1.2-0.3,2.8-0.5,4.6-0.5h11v-6.5h5.4v17.9c0,1.6-0.2,3-0.5,4.1
		c-0.3,1.1-0.8,2-1.5,2.7c-0.7,0.7-1.7,1.2-2.9,1.5c-1.2,0.3-2.7,0.5-4.6,0.5H63z M58.8,201.6c0,0.9,0.1,1.6,0.2,2.1
		c0.1,0.5,0.4,1,0.7,1.3c0.4,0.3,0.9,0.5,1.5,0.6s1.4,0.1,2.4,0.1h6c0.8,0,1.5-0.1,2.1-0.2c0.5-0.1,1-0.3,1.3-0.6s0.5-0.7,0.7-1.3
		c0.1-0.5,0.2-1.2,0.2-2.1v-6.5H63.6c-0.9,0-1.7,0-2.3,0.1s-1.1,0.3-1.5,0.6c-0.4,0.3-0.6,0.7-0.7,1.3c-0.1,0.5-0.2,1.3-0.2,2.1
		V201.6z"/>
	<path d="M85.4,189.2c-0.7,0-1.2-0.1-1.4-0.4c-0.3-0.3-0.4-0.7-0.4-1.3v-2.1c0-0.6,0.1-1,0.4-1.3c0.3-0.3,0.8-0.4,1.4-0.4h1.8
		c0.7,0,1.2,0.1,1.5,0.4c0.3,0.3,0.4,0.7,0.4,1.3v2.1c0,0.6-0.1,1-0.4,1.3c-0.3,0.3-0.8,0.4-1.5,0.4H85.4z M83.5,210.4v-19.5h5.5
		v19.5H83.5z"/>
	<path d="M100.1,210.4c-1.4,0-2.6-0.1-3.5-0.4c-0.9-0.2-1.7-0.6-2.2-1.1c-0.5-0.5-0.9-1-1.1-1.7c-0.2-0.7-0.3-1.4-0.3-2.2v-1.9
		c0-0.8,0.1-1.6,0.3-2.2c0.2-0.7,0.6-1.2,1.1-1.7c0.5-0.5,1.2-0.8,2.1-1c0.9-0.2,2-0.4,3.4-0.4h14.6v-0.4c0-1.3-0.3-2.1-0.8-2.6
		s-1.4-0.6-2.6-0.6h-5.4v-3.9h5.4c1.6,0,2.9,0.1,4,0.4s2,0.7,2.7,1.4c0.7,0.6,1.2,1.4,1.5,2.3c0.3,0.9,0.5,2,0.5,3.3v4.9
		c0,1.5-0.1,2.7-0.4,3.7c-0.3,1-0.8,1.8-1.5,2.4c-0.7,0.6-1.6,1.1-2.8,1.3c-1.2,0.3-2.6,0.4-4.4,0.4H100.1z M114.3,201.4h-14
		c-0.6,0-1.1,0.1-1.5,0.4c-0.4,0.3-0.5,0.8-0.5,1.6v1.4c0,0.7,0.2,1.2,0.6,1.5c0.4,0.3,0.9,0.4,1.6,0.4h10.2c0.6,0,1.2,0,1.6-0.1
		s0.8-0.3,1.1-0.5c0.3-0.3,0.5-0.6,0.7-1.1s0.2-1.1,0.2-1.8V201.4z"/>
	<path d="M143.9,210.4v-11.2c0-0.8-0.1-1.5-0.2-2.1s-0.4-0.9-0.7-1.3c-0.3-0.3-0.8-0.5-1.3-0.6c-0.6-0.1-1.3-0.2-2.2-0.2h-5.9
		c-0.9,0-1.6,0.1-2.1,0.2s-1,0.3-1.4,0.6s-0.6,0.7-0.7,1.3c-0.1,0.5-0.2,1.2-0.2,2.1v11.2h-5.4v-11.4c0-1.6,0.2-3,0.5-4.1
		c0.3-1.1,0.8-2,1.5-2.7c0.7-0.7,1.7-1.2,2.9-1.5c1.2-0.3,2.7-0.5,4.6-0.5h6.6c1.8,0,3.4,0.2,4.6,0.5c1.2,0.3,2.2,0.8,2.9,1.5
		c0.7,0.7,1.2,1.6,1.5,2.7c0.3,1.1,0.5,2.5,0.5,4.1v11.4H143.9z"/>
	<path d="M154.6,210.4v-15.6h-2.8v-4.5h2.8v-5.7h5.5v5.7h6.2v4.5h-6.2v15.6H154.6z"/>
	<path d="M201.4,196.6l-5.9,12.4c-0.3,0.6-0.7,1.1-1.2,1.5c-0.5,0.4-1.1,0.5-1.8,0.5c-0.8,0-1.5-0.2-1.9-0.5c-0.4-0.4-0.8-0.8-1-1.5
		l-7.9-18.6h5.5l5.7,13.5l5.6-12c0.3-0.7,0.7-1.2,1.1-1.5s1-0.5,1.8-0.5c0.8,0,1.4,0.2,1.8,0.5s0.8,0.9,1.1,1.6l5.4,12l6-13.5h5.4
		l-8.3,18.6c-0.3,0.6-0.6,1-1.1,1.4c-0.5,0.4-1.1,0.6-1.8,0.6c-0.7,0-1.3-0.2-1.8-0.6c-0.5-0.4-0.9-0.9-1.1-1.4L201.4,196.6z"/>
	<path d="M227.8,202.4v0.9c0,0.6,0,1.1,0.1,1.5c0.1,0.4,0.3,0.7,0.5,0.9c0.3,0.2,0.6,0.4,1,0.4c0.4,0.1,1,0.1,1.6,0.1h6.4v4.2H231
		c-3.1,0-5.4-0.6-6.7-1.8c-1.3-1.2-2-3.1-2-5.8v-4.6c0-1.5,0.1-2.7,0.4-3.7c0.3-1,0.8-1.8,1.5-2.4c0.7-0.6,1.6-1,2.7-1.3
		c1.1-0.3,2.6-0.4,4.3-0.4h9.5c1.4,0,2.6,0.1,3.5,0.4c0.9,0.3,1.7,0.6,2.2,1.1c0.5,0.5,0.9,1.1,1.1,1.7c0.2,0.7,0.3,1.4,0.3,2.2v6.6
		H227.8z M242.6,196.3c0-0.7-0.2-1.1-0.5-1.3c-0.3-0.2-0.9-0.3-1.7-0.3h-9c-0.7,0-1.3,0-1.7,0.1s-0.8,0.2-1.1,0.4
		c-0.3,0.2-0.5,0.5-0.6,1c-0.1,0.4-0.2,1-0.2,1.7v1.1h14.9V196.3z"/>
	<path d="M261.3,210.4c-1.8,0-3.3-0.2-4.6-0.5c-1.2-0.3-2.2-0.8-2.9-1.5c-0.7-0.7-1.2-1.6-1.5-2.7c-0.3-1.1-0.5-2.4-0.5-4.1v-17.9
		h5.4v6.5h11c1.8,0,3.4,0.2,4.6,0.5c1.2,0.3,2.2,0.8,2.9,1.5c0.7,0.7,1.2,1.6,1.5,2.7c0.3,1.1,0.5,2.5,0.5,4.1v2.7
		c0,1.6-0.2,3-0.5,4.1s-0.8,2-1.5,2.7c-0.7,0.7-1.7,1.2-2.9,1.5c-1.2,0.3-2.7,0.5-4.6,0.5H261.3z M272.3,199.3
		c0-0.9-0.1-1.6-0.2-2.1c-0.1-0.5-0.3-1-0.7-1.3s-0.8-0.5-1.3-0.6s-1.3-0.2-2.1-0.2h-10.8v6.5c0,0.8,0.1,1.5,0.2,2
		c0.1,0.5,0.3,1,0.7,1.3s0.7,0.5,1.3,0.6s1.2,0.2,2.1,0.2h6.6c0.8,0,1.6-0.1,2.1-0.2s1-0.3,1.3-0.6s0.5-0.7,0.7-1.3
		c0.1-0.5,0.2-1.2,0.2-2.1V199.3z"/>
	<path d="M297.4,210.4v-15.6h-2.8v-4.5h2.8v-5.7h5.5v5.7h6.2v4.5H303v15.6H297.4z"/>
	<path d="M317.1,202.4v0.9c0,0.6,0,1.1,0.1,1.5c0.1,0.4,0.3,0.7,0.5,0.9c0.3,0.2,0.6,0.4,1,0.4c0.4,0.1,1,0.1,1.6,0.1h6.4v4.2h-6.4
		c-3.1,0-5.4-0.6-6.7-1.8c-1.3-1.2-2-3.1-2-5.8v-4.6c0-1.5,0.1-2.7,0.4-3.7c0.3-1,0.8-1.8,1.5-2.4c0.7-0.6,1.6-1,2.7-1.3
		c1.1-0.3,2.6-0.4,4.3-0.4h9.5c1.4,0,2.6,0.1,3.5,0.4c0.9,0.3,1.7,0.6,2.2,1.1c0.5,0.5,0.9,1.1,1.1,1.7c0.2,0.7,0.3,1.4,0.3,2.2v6.6
		H317.1z M331.9,196.3c0-0.7-0.2-1.1-0.5-1.3c-0.3-0.2-0.9-0.3-1.7-0.3h-9c-0.7,0-1.3,0-1.7,0.1s-0.8,0.2-1.1,0.4
		c-0.3,0.2-0.5,0.5-0.6,1c-0.1,0.4-0.2,1-0.2,1.7v1.1h14.9V196.3z"/>
	<path d="M350.6,210.4c-1.8,0-3.3-0.2-4.5-0.5c-1.2-0.3-2.2-0.8-2.9-1.5c-0.7-0.7-1.2-1.6-1.5-2.7c-0.3-1.1-0.5-2.4-0.5-4.1v-2.7
		c0-1.6,0.2-3,0.5-4.1c0.3-1.1,0.8-2,1.5-2.7c0.7-0.7,1.7-1.2,2.9-1.5c1.2-0.3,2.7-0.5,4.5-0.5h14.3v4.7h-14.1
		c-0.9,0-1.5,0.1-2.1,0.2s-1,0.3-1.3,0.6s-0.5,0.7-0.7,1.3c-0.1,0.5-0.2,1.2-0.2,2v2.4c0,0.8,0.1,1.4,0.2,2c0.1,0.5,0.3,1,0.7,1.3
		s0.7,0.5,1.3,0.7s1.2,0.2,2.1,0.2h14.1v4.7H350.6z"/>
	<path d="M389.3,210.4v-11.2c0-0.8-0.1-1.5-0.2-2.1c-0.1-0.5-0.4-1-0.7-1.3s-0.8-0.5-1.3-0.6s-1.3-0.2-2.1-0.2h-10.8v15.3h-5.4
		v-26.5h5.4v6.5h11c1.8,0,3.4,0.2,4.6,0.5c1.2,0.3,2.2,0.8,2.9,1.5s1.2,1.6,1.5,2.7c0.3,1.1,0.5,2.5,0.5,4.1v11.4H389.3z"/>
</g>
</svg>
